<?xml version="1.0" encoding="UTF-8"?>
<svg width="12px" height="22px" viewBox="0 0 12 22" version="1.1" xmlns="http://www.w3.org/2000/svg" xmlns:xlink="http://www.w3.org/1999/xlink">
    <title>Shape</title>
    <g id="Page-1" stroke="none" stroke-width="1" fill="none" fill-rule="evenodd">
        <g id="Pregunta" transform="translate(-9.000000, -4.000000)" fill="#000000" fill-rule="nonzero">
            <g id="?" transform="translate(9.444336, 4.895508)">
                <path d="M4.59863281,15.5058594 C4.59863281,14.6425781 4.6788737,13.8789062 4.83935547,13.2148438 C4.99983724,12.5507812 5.19628906,11.9392904 5.42871094,11.3803711 C5.66113281,10.8214518 5.91845703,10.2985026 6.20068359,9.81152344 C6.48291016,9.32454427 6.74023438,8.82926432 6.97265625,8.32568359 C7.20507812,7.82210286 7.40152995,7.29361979 7.56201172,6.74023438 C7.72249349,6.18684896 7.80273437,5.56705729 7.80273437,4.88085938 C7.80273437,4.23893229 7.72249349,3.68001302 7.56201172,3.20410156 C7.40152995,2.7281901 7.17740885,2.33251953 6.88964844,2.01708984 C6.60188802,1.70166016 6.26432292,1.46647135 5.87695312,1.31152344 C5.48958333,1.15657552 5.06347656,1.07910156 4.59863281,1.07910156 C4.20019531,1.07910156 3.82942708,1.12613932 3.48632812,1.22021484 C3.14322917,1.31429036 2.84716797,1.44433594 2.59814453,1.61035156 C2.34912109,1.77636719 2.1554362,1.97558594 2.01708984,2.20800781 C1.87874349,2.44042969 1.80957031,2.69498698 1.80957031,2.97167969 C1.80957031,3.2483724 1.85660807,3.47526042 1.95068359,3.65234375 C2.04475911,3.82942708 2.14990234,3.99267578 2.26611328,4.14208984 C2.38232422,4.29150391 2.49023438,4.44645182 2.58984375,4.60693359 C2.68945312,4.76741536 2.73925781,4.96386719 2.73925781,5.19628906 C2.73925781,5.60579427 2.62858073,5.93229167 2.40722656,6.17578125 C2.1858724,6.41927083 1.91471354,6.54101562 1.59375,6.54101562 C1.12890625,6.54101562 0.747070313,6.3445638 0.448242188,5.95166016 C0.149414062,5.55875651 0,5.046875 0,4.41601562 C0,3.61914062 0.163248698,2.94124349 0.489746094,2.38232422 C0.81624349,1.82340495 1.23404948,1.36686198 1.74316406,1.01269531 C2.25227865,0.658528646 2.8194987,0.401204427 3.44482422,0.240722656 C4.07014974,0.0802408854 4.68164062,0 5.27929688,0 C6.07617188,0 6.81494141,0.107910156 7.49560547,0.323730469 C8.17626953,0.539550781 8.76009115,0.846679688 9.24707031,1.24511719 C9.73404948,1.64355469 10.1158854,2.13053385 10.3925781,2.70605469 C10.6692708,3.28157552 10.8076172,3.93457031 10.8076172,4.66503906 C10.8076172,5.3844401 10.6720378,6.04573568 10.4008789,6.64892578 C10.1297201,7.25211589 9.78938802,7.83317057 9.37988281,8.39208984 C8.9703776,8.95100911 8.52490234,9.49886068 8.04345703,10.0356445 C7.56201172,10.5724284 7.11653646,11.1230469 6.70703125,11.6875 C6.29752604,12.2519531 5.95719401,12.8468424 5.68603516,13.472168 C5.4148763,14.0974935 5.27929688,14.7753906 5.27929688,15.5058594 L4.59863281,15.5058594 Z M5.06347656,17.3320312 C5.28483073,17.3320312 5.49235026,17.3735352 5.68603516,17.456543 C5.87972005,17.5395508 6.05126953,17.6557617 6.20068359,17.8051758 C6.35009766,17.9545898 6.46630859,18.1261393 6.54931641,18.3198242 C6.63232422,18.5135091 6.67382812,18.7210286 6.67382812,18.9423828 C6.67382812,19.1748047 6.63232422,19.3878581 6.54931641,19.581543 C6.46630859,19.7752279 6.35009766,19.9467773 6.20068359,20.0961914 C6.05126953,20.2456055 5.87972005,20.3618164 5.68603516,20.4448242 C5.49235026,20.527832 5.28483073,20.5693359 5.06347656,20.5693359 C4.59863281,20.5693359 4.21126302,20.414388 3.90136719,20.1044922 C3.59147135,19.7945964 3.43652344,19.4072266 3.43652344,18.9423828 C3.43652344,18.7210286 3.47802734,18.5135091 3.56103516,18.3198242 C3.64404297,18.1261393 3.76025391,17.9545898 3.90966797,17.8051758 C4.05908203,17.6557617 4.23063151,17.5395508 4.42431641,17.456543 C4.6180013,17.3735352 4.83105469,17.3320312 5.06347656,17.3320312 Z" id="Shape"></path>
            </g>
        </g>
    </g>
</svg>