<?xml version="1.0" encoding="UTF-8"?>
<svg width="30px" height="30px" viewBox="0 0 30 30" version="1.1" xmlns="http://www.w3.org/2000/svg" xmlns:xlink="http://www.w3.org/1999/xlink">
    <title>Cross</title>
    <g id="Cross" stroke="none" stroke-width="1" fill="none" fill-rule="evenodd">
        <path d="M15,26 C21.0751322,26 26,21.0751322 26,15 C21.3901588,15 17.7234921,15 15,15" id="rightbottom" fill="#FF6347"></path>
        <path d="M4,26 C10.0751322,26 15,21.0751322 15,15 C10.3901588,15 6.72349209,15 4,15" id="leftbottom" fill="#00BFFF" transform="translate(9.500000, 20.500000) rotate(90.000000) translate(-9.500000, -20.500000) "></path>
        <path d="M15,15 C21.0751322,15 26,10.0751322 26,4 C21.3901588,4 17.7234921,4 15,4" id="righttop" fill="#FFFF00" transform="translate(20.500000, 9.500000) scale(1, -1) translate(-20.500000, -9.500000) "></path>
        <path d="M4,15 C4,8.92486775 8.92486775,4 15,4 C15,8.60984124 15,12.2765079 15,15" id="lefttop-2" fill="#98FB98"></path>
        <circle id="Oval" fill="#FFA500" cx="15" cy="15" r="6"></circle>
    </g>
</svg>